<svg xmlns="http://www.w3.org/2000/svg" width="292.789" height="324.058">
  <path fill="#0f0d0e" d="M566.134 2885.883c11.075.212 22.147 1.876 32.37 6.316a75.913 75.913 0 0 1 40.118 41.433c7.272 18.501 6.297 38.316-1.574 56.392 17.333-.02 32.238 3.51 46.366 14.15 15.517 11.687 26.577 29.169 29.148 48.55 2.551 19.25-1.687 38.654-13.7 54.093-12.34 15.858-30.095 26.411-50.14 28.826-23.765 2.863-43.344-6.196-61.55-20.309 4.934 30.022 15.594 57.225 38.514 78.104 6.49 5.912 13.91 10.963 20.931 16.229-27.107.54-54.305.113-81.422.142l-77.354-.094c2.36-1.761 4.855-3.371 7.263-5.07 30.714-21.672 46.339-52.7 52.663-89.26-13.43 11.64-28.891 20.05-46.964 21.224-20.87 1.354-41.021-6.062-56.536-19.98-14.909-13.374-22.813-31.995-23.714-51.837-.882-19.404 6.948-38.314 20.056-52.482 16.032-17.326 33.733-21.835 56.34-22.85-2.916-8.087-5.346-15.919-5.904-24.58-1.284-19.911 5.29-37.983 18.455-52.88 14.946-16.913 34.448-24.803 56.634-26.116z" style="stroke-width:.981742" transform="translate(-420.485 -2885.883)"/>
  <path fill="#fcfcfb" d="M564.223 2893.986a69.363 69.363 0 0 1 44.238 13.091 67.242 67.242 0 0 1 26.673 44.286c2.719 17.883-2.704 34.175-13.166 48.487 4.933-1.115 9.975-1.996 15.03-2.256 17.945-.923 34.568 6.005 47.63 18.128a65.329 65.329 0 0 1 20.623 45.514 65.6 65.6 0 0 1-17.847 47.189c-11.682 12.272-29.338 19.563-46.205 19.979-18.904.466-36.977-7.516-50.51-20.473-3.746-3.586-6.648-7.843-10.379-11.432l-1.171.051c-1.328 1.896-1.264 3.941-1.18 6.17a142.114 142.114 0 0 0 44.183 98.76l-54.923.256c-18.205.094-36.41.032-54.613-.186 11.479-10.927 20.976-23.281 28.07-37.486 8.477-16.977 12.954-34.989 15.413-53.727.432-3.292 1.687-8.688.382-11.839-.455-1.098-.646-.903-1.663-1.293-3.501 2.097-6.129 6.409-8.935 9.39a79.831 79.831 0 0 1-16.326 13.179 65.466 65.466 0 0 1-50.71 7.438 68.013 68.013 0 0 1-41.333-31.355 65.386 65.386 0 0 1-6.534-51.072c4.445-15.98 17.093-31.838 31.603-39.84 16.499-9.099 34.04-9.293 51.741-4.19-8.897-9.106-14.125-22.204-15.24-34.799-1.566-17.689 4.286-34.467 15.717-47.931 12.914-15.213 29.872-22.558 49.432-24.04z" style="stroke-width:.981742" transform="translate(-420.485 -2885.883)"/>
  <path fill="#0f0d0e" d="M559.224 2900.528c12.543-1.465 25.813.435 37.012 6.408 14.855 7.921 26.747 22.555 31.413 38.727 5.514 19.112-1.103 42.304-15.764 55.876-3.316 3.072-10.216 5.84-12.05 9.89-.51 1.123-.223 1.212.142 2.293 1.498.776 1.93 1.261 3.705.786 4.261-1.142 8.786-4.13 12.85-5.984 12.01-5.48 27.153-6.537 39.758-2.564 14.624 4.61 28.563 15.522 35.668 29.194 7.72 14.853 9.639 29.731 4.441 45.82-5 15.478-15.516 28.01-30.123 35.28-22.5 11.202-50.086 6.495-68.616-10.242-7.436-6.718-10.813-15.295-20.946-18.656-7.77-2.049-19.103-1.544-25.734 3.572-3.206 2.473-5.964 6.616-8.654 9.698-9.925 11.371-21.73 19.427-36.859 21.782a60.438 60.438 0 0 1-45.718-11.14c-12.996-9.746-22.189-23.839-24.409-40.074a58.604 58.604 0 0 1 11.495-44.133c15.639-20.384 42.37-29.077 66.791-20.277 4.87 1.754 12.572 8.006 17.482 7.352 1.48-1.4 1.414-1.499 1.68-3.403-.838-2.3-2.262-3.038-4.154-4.436-12.19-9.008-21.048-22.944-23.192-38.044-2.171-15.287 2.534-30.964 11.774-43.216 10.536-13.971 24.808-22.066 42.008-24.51z" style="stroke-width:.981742" transform="translate(-420.485 -2885.883)"/>
  <path fill="#0f0d0e" d="M566.682 3096.415c7.073 3.27 5.228 12.266 6.267 18.988 4.731 30.632 15.239 56.063 34.784 80.12l-40.336.17-40.834.042c16.717-20.607 26.69-41.668 32.724-67.506 1.532-6.555 3.262-28.183 7.395-31.814z" style="stroke-width:.981742" transform="translate(-420.485 -2885.883)"/>
</svg>
