<svg xmlns="http://www.w3.org/2000/svg" width="276.814" height="378.988">
  <path fill="#292425" d="M567.715 2237.139c2.978 3.857 7.372 22.702 9.68 28.49 3.377 8.474 7.701 16.776 12.184 24.71 23.3 41.248 54.84 78.647 88.734 111.586 8.748 8.502 18.167 16.214 26.974 24.578-47.149 39.96-100.17 98.6-125.675 155.04-5.146 11.388-7.548 22.977-11.712 34.583-4.011-17.469-10.126-33.308-18.429-49.226-25.498-48.892-76.296-107.388-120.998-140.233 48.366-38.694 102.668-97.742 127.858-154.847 4.958-11.242 8.168-22.861 11.384-34.681z" style="stroke-width:1.10509" transform="translate(-428.473 -2237.139)"/>
  <path fill="#f6f5f4" d="M567.64 2267.897c4.32 4.397 9.251 17.477 12.579 23.586 4.576 8.401 9.61 16.747 14.868 24.748 26.785 40.762 60.828 78.1 97.13 110.534-39.357 31.508-81.557 83.173-107.515 126.447-6.16 10.27-10.718 21.263-16.54 31.683-24.976-50.408-52.937-88.583-92.654-128.136-10.46-10.418-21.22-21.23-33.17-29.908 49.093-41.072 100.711-99.507 125.301-158.954z" style="stroke-width:1.10509" transform="translate(-428.473 -2237.139)"/>
  <path fill="#292425" d="M568.447 2284.992c3.708 3.424 11.875 19.627 15.045 24.726 5.292 8.513 11.063 16.832 16.997 24.909 24.633 33.533 51.871 62.74 81.752 91.557-31.469 29.939-60.244 61.607-85.378 97.083a491.73 491.73 0 0 0-16.32 24.633c-3.995 6.56-7.725 14.874-12.824 20.555a523.313 523.313 0 0 0-89.26-118.193c-7.957-7.985-16.116-16.604-25.441-22.957 12.927-13.044 26.49-25.347 39.105-38.739a534.061 534.061 0 0 0 55.729-69.617c7.3-11.057 13.748-22.62 20.595-33.957z" style="stroke-width:1.18515" transform="translate(-428.473 -2237.139)"/>
  <path fill="#d63f44" d="M569.005 2305.464c26.572 44.367 62.346 84.49 99.17 120.537a698.466 698.466 0 0 0-78.873 91.42c-7.347 10.252-13.307 21.569-20.712 31.693l-.309.414c-18.236-31.1-41.2-61.332-65.537-87.844-11.21-12.212-23.226-23.668-34.893-35.437 28.242-24.52 56.097-57.468 78.155-87.615 7.945-10.858 15.087-22.283 22.999-33.168z" style="fill:#d9373f;fill-opacity:1;stroke-width:1.18515" transform="translate(-428.473 -2237.139)"/>
</svg>
