<svg xmlns="http://www.w3.org/2000/svg" width="307.223" height="312.177">
  <path fill="#0f0d0e" d="M628.98 1341.59c6.327.157 12.601.487 18.846 1.585 23.292 4.098 40.509 17.137 53.786 36.159a206.562 206.562 0 0 1 4.723-6.32c13.103-16.725 31.627-28.192 52.883-30.672a84.845 84.845 0 0 1 63.196 17.602 87.243 87.243 0 0 1 31.697 59.073c1.572 14.78-1.099 31.617-7.551 45.16-6.899 14.474-18.295 25.894-27.97 38.463a5740.205 5740.205 0 0 1-70.29 88.787c-16.211 20.232-33.96 40.145-47.423 62.34-8.612-17.514-23.655-33.901-35.841-49.108l-68.563-86.778c-13.43-17.066-31.383-36.623-41.068-55.83-4.789-9.498-7.237-20.025-7.904-30.613-1.44-22.892 6.158-43.97 21.215-61.145 16.141-18.41 36.146-27.094 60.263-28.703z" style="stroke-width:1.08965" transform="translate(-547.328 -1341.59)"/>
  <path fill="#fcfcfb" d="M627.235 1350.553c6.999-.617 14.707.086 21.539 1.677 25.431 5.921 40.617 22.731 53.686 44.027 3.02-6.047 6.128-11.772 10.296-17.139 11.727-15.098 28.726-25.774 47.84-28.079a76.024 76.024 0 0 1 55.947 15.844 76.342 76.342 0 0 1 28.27 50.561c1.66 14.521-.348 30.494-6.609 43.744-5.788 12.247-16.71 23.425-25.047 34.104l-59.116 74.58a2547.648 2547.648 0 0 1-28.934 36.409c-8.06 9.856-16.553 19.487-23.932 29.862-29.18-38.046-59.345-75.475-89.153-113.039-15.305-19.287-33.8-39.231-45.953-60.464-5.122-8.95-7.882-18.27-8.905-28.523a77.568 77.568 0 0 1 17.33-57.013c13.172-15.908 32.442-24.72 52.74-26.551z" style="stroke-width:1.08965" transform="translate(-547.328 -1341.59)"/>
  <path fill="#0f0d0e" d="M625.69 1357.078c10.656-.775 21.481.35 31.486 4.236 23.962 9.308 35.584 29.216 45.478 51.434 3.891-11.134 8.692-21.442 16.136-30.682 10.88-13.503 26.06-22.656 43.428-24.484 17.797-1.872 36.272 2.781 50.256 14.155a70.75 70.75 0 0 1 26.185 48.646c1.14 12.187-.704 25.5-5.855 36.667-7.627 16.535-22.737 32.063-34.072 46.274-12.68 15.897-25.01 32.052-38.035 47.671-19.948 24.495-38.64 50.153-59.17 74.163-10.988-10.952-20.053-23.884-29.575-36.095l-42.378-53.957a2459.587 2459.587 0 0 0-30.246-37.973c-9.274-11.416-19.146-22.722-26.742-35.356-4.979-8.281-7.968-18.124-9.127-27.699-2.214-18.282 3.64-37.025 15.025-51.392 11.877-14.988 28.347-23.548 47.206-25.608z" style="stroke-width:1.08965" transform="translate(-547.328 -1341.59)"/>
  <path fill="#d9373f" d="M622.71 1365.18c8.584-1.228 17.86-.687 26.259 1.438 20.696 5.234 36.024 21.444 44.124 40.723 2.494 5.938 3.928 13.063 7.316 18.498.425.681.714.538 1.46.7 6.924-5.186 11.309-25.356 17.508-34.004 10.099-14.088 24.353-24.728 41.745-27.272 16.077-2.35 32.834 2.323 45.748 12.067 13.283 10.02 21.569 25.08 23.685 41.538a65.153 65.153 0 0 1-4.936 34.327c-6.218 13.978-18.089 26.197-27.554 38.17l-33.037 42.059a3416.383 3416.383 0 0 0-63.41 80.313c-8.835-10.056-16.767-20.98-25.048-31.497l-45.68-57.925a3697.839 3697.839 0 0 0-29.769-37.326c-6.838-8.506-14.12-16.897-20.014-26.097-4.723-7.368-7.93-14.698-9.395-23.362a63.786 63.786 0 0 1 11.166-48.408c9.627-13.332 23.73-21.368 39.831-23.943z" style="stroke-width:1.08965" transform="translate(-547.328 -1341.59)"/>
</svg>
