<svg xmlns="http://www.w3.org/2000/svg" width="307.223" height="333.969">
  <path fill="#0f0d0e" d="M798.814 1787.231c3.844 6.723 6.17 19.477 9.925 27.735 13.703 30.141 42.102 55.058 70.416 71.142 14.496 8.236 31.074 13.319 44.01 24.125 16.797 14.033 26.728 34.433 28.586 56.13a79.91 79.91 0 0 1-18.44 58.613c-13.376 15.642-33.397 26.103-53.966 27.663-27.22 2.065-46.956-7.8-67.024-24.995a173.77 173.77 0 0 0 1.143 7.103c8.043 45.156 21.213 60.906 57.822 86.453a5799.12 5799.12 0 0 1-72.77-.58c-24.336-.13-48.707.389-73.048.514 3.019-2.466 6.345-4.694 9.524-6.954 32.567-23.148 42.698-47.895 49.205-86.336a105.641 105.641 0 0 1-21.246 15.423 82.414 82.414 0 0 1-63.08 6.374c-19.898-6.057-36.81-21.507-46.428-39.82-9.404-17.905-11.07-40.686-5.09-59.942 6.976-22.467 23.355-40.01 43.569-51.425 7.117-4.02 14.719-7.15 21.953-10.95 29.43-15.466 58.249-40.097 73.507-70.059 4.919-9.66 8.2-19.898 11.433-30.214z" style="stroke-width:.956518" transform="translate(-644.85 -1787.231)"/>
  <path fill="#fcfcfb" d="M798.439 1813.634c2.752 1.355 10.383 18.2 12.89 22.073 5.566 8.6 12.387 16.677 19.626 23.907a208.002 208.002 0 0 0 41.35 31.788c20.582 12.067 42.914 17.886 57.658 38.212a74.067 74.067 0 0 1 13.436 55.119 71.96 71.96 0 0 1-29.261 47.134 72.26 72.26 0 0 1-54.275 12.226c-22.338-3.975-43.092-19.338-56.03-37.786-.065 3.483-.064 6.965.003 10.448 1.08 38.798 13.209 68.965 41.384 95.632-14.902.203-29.825.067-44.73.089h-48.47c2.943-3.081 5.903-6.161 8.731-9.348 23.313-26.276 33.55-60.401 31.522-95.242-10.89 14.115-25.396 26.952-42.333 33.09-18.795 6.811-38.869 5.966-56.978-2.647a68.977 68.977 0 0 1-35.564-39.432c-5.118-14.802-5.795-30.193-1.645-45.308 12.25-44.621 48.48-48.473 80.999-70.893 27.138-18.71 47.076-39.352 61.687-69.064z" style="stroke-width:.956518" transform="translate(-644.85 -1787.231)"/>
  <path fill="#0f0d0e" d="M798.775 1825.305c19.404 31.33 36.391 50.48 68.631 69.594 20.737 12.295 44.467 18.748 59.065 39.29 10.142 14.27 14.329 33.243 11.284 50.474-3.044 17.229-13.838 33.886-28.145 43.89-13.874 9.7-32.317 13.547-48.944 10.408-28.303-5.344-46.424-27.073-61.906-49.442-14.54 20.248-28.86 39.302-53.808 47.13-17.235 5.408-35.213 4.129-51.219-4.396a66.347 66.347 0 0 1-32.598-40.245c-8.663-29.837 5.159-61.232 30.876-77.765 14.044-9.028 30.098-14.283 44.15-23.713 25.735-17.272 47.447-38.03 62.614-65.225z" style="stroke-width:.956518" transform="translate(-644.85 -1787.231)"/>
  <path fill="#0f0d0e" d="M797.612 2024.894c2.358 2.797 5.671 28.66 7.758 35.209 5.487 17.216 15.217 34.067 27.48 47.297l-33.008.074-35.425-.01c4.082-5.971 8.948-11.31 12.884-17.41 12.313-19.088 18.412-42.723 20.311-65.161z" style="stroke-width:.956518" transform="translate(-644.85 -1787.231)"/>
</svg>
